<svg xmlns="http://www.w3.org/2000/svg" viewBox="0 0 603.63 899.98"><defs><style>.cls-1{isolation:isolate;}.cls-2{fill:#d6d6d6;}.cls-3{fill:#fff;}.cls-4{fill:#484e51;}.cls-5{fill:#161819;}.cls-6{fill:#1c1c1c;mix-blend-mode:overlay;}.cls-7{fill:none;stroke:#fff;stroke-linecap:round;stroke-miterlimit:10;stroke-width:20px;}.cls-8{fill:#3eaedb;}.cls-9{fill:#ff0031;}</style></defs><title>astronautMascot2</title><g class="cls-1"><g id="art"><g id="backpack"><polygon class="cls-2" points="116.67 483.78 158.88 591.28 165.32 589.38 130.11 476.77 116.67 483.78"/><path class="cls-3" d="M629.78,375.46l-26.57,8.83-18.56-12.05,2.83-21.19,50.31,12.29-3.69-20.13a11.79,11.79,0,0,0-9-9.39l-31.27-7a11.85,11.85,0,0,0-5.46.08L364.16,383.73a11.74,11.74,0,0,0-4.77,2.48l-55.51,47.52a11.79,11.79,0,0,0-3.49,12.79l2.59,7.54,29.75-24.49,19.06-5.11-3.68,18-9.41,9.33-13.45,7-19.38,3.63,34.22,99.65,7.23-1.94c1.59-.42,1.28,4.77,1.28,4.77l-7.29.71,30.45,88.66a11.79,11.79,0,0,0,14.51,7.48l1.56-.47-42.21-107.5,13.44-7,35.21,112.61,265.14-78.59-22.16-95,11.15-.72,1.55-2.68,10.54,4.94L638.77,368.73Z" transform="translate(-228.95 -70.03)"/><path class="cls-3" d="M669,577.62a11.78,11.78,0,0,0,5.73-12.34l-12.47-68.13-6.4-.62Z" transform="translate(-228.95 -70.03)"/><path class="cls-2" d="M650.18,496l-3.72-7.51,1.94-3.36-11.15.72,22.16,95,7.1-2.11a11.84,11.84,0,0,0,2.52-1.09l-13.14-81.09Z" transform="translate(-228.95 -70.03)"/><polygon class="cls-2" points="419.45 415.07 425.03 414.71 426.94 426.5 433.33 427.12 431.54 417.33 421 412.38 419.45 415.07"/><polygon class="cls-2" points="421.23 425.94 426.94 426.5 425.03 414.71 419.45 415.07 417.51 418.43 421.23 425.94"/><path class="cls-2" d="M347.32,560.16l-7.23,1.94,1.22,3.54,7.29-.71S348.91,559.74,347.32,560.16Z" transform="translate(-228.95 -70.03)"/><polygon class="cls-2" points="109.74 381.78 119.16 372.44 122.84 354.43 103.78 359.54 74.03 384.03 76.91 392.42 96.3 388.79 109.74 381.78"/><polygon class="cls-2" points="355.7 302.2 374.26 314.25 400.83 305.43 409.82 298.7 408.83 293.31 358.53 281.02 355.7 302.2"/><path class="cls-3" d="M614.81,268.81l-2.41,22.78a54.6,54.6,0,0,1,15.78,14.17c7.26-3.39,15.06-11.34,19.15-15.88C639.71,276.49,629.23,267.7,614.81,268.81Z" transform="translate(-228.95 -70.03)"/><path class="cls-3" d="M645.74,365c-.71,14.19-5,26.65-13.17,33.54l17,12.47L667.63,396a375,375,0,0,0-2.31-38.44C660.78,361.3,650.52,363.94,645.74,365Z" transform="translate(-228.95 -70.03)"/><path class="cls-3" d="M649.34,293.64c-3.78,4-11.9,11.95-19,15.14a87,87,0,0,1,11.79,25.79,67.25,67.25,0,0,0,17.77-9.74C657.36,313.65,653.93,302.79,649.34,293.64Z" transform="translate(-228.95 -70.03)"/><path class="cls-3" d="M643.45,339.65a97.14,97.14,0,0,1,2.38,20.59,22.47,22.47,0,0,0,18.2-13c-.82-5.79-1.83-11.74-3.06-17.68C656.5,332.77,648.71,338,643.45,339.65Z" transform="translate(-228.95 -70.03)"/><path class="cls-2" d="M647.33,289.88c-4.09,4.54-11.89,12.49-19.15,15.88.76,1,1.49,2,2.2,3,7.06-3.19,15.18-11.17,19-15.14C648.7,292.35,648,291.1,647.33,289.88Z" transform="translate(-228.95 -70.03)"/><path class="cls-2" d="M659.94,324.83a67.25,67.25,0,0,1-17.77,9.74q.71,2.54,1.28,5.08c5.26-1.65,13-6.88,17.52-10.08C660.64,328,660.3,326.41,659.94,324.83Z" transform="translate(-228.95 -70.03)"/><path class="cls-2" d="M645.83,360.24c0,1.61,0,3.2-.09,4.77,4.78-1.07,15-3.71,19.58-7.49-.37-3.33-.8-6.77-1.29-10.27A22.47,22.47,0,0,1,645.83,360.24Z" transform="translate(-228.95 -70.03)"/></g><g id="suit_base" data-name="suit base"><polygon class="cls-3" points="380.26 596.97 439.27 536.26 389.71 308.41 366.94 306 304.45 314.25 102 371.94 86.35 389.76 176.1 629.56 264.32 628.06 187.27 659.4 200.43 694.56 410.51 639.93 455.49 610.84 447.03 571.95 380.26 596.97"/><polygon class="cls-2" points="176.1 629.56 187.27 659.4 264.32 628.06 176.1 629.56"/><polygon class="cls-2" points="447.03 571.95 439.27 536.26 380.26 596.97 447.03 571.95"/><g id="arm_left" data-name="arm left"><path class="cls-3" d="M268.74,662.38l-.32,53.08a7,7,0,0,0,7.33,7l36.16-1.91a7,7,0,0,0,6.6-7.2l-.82-22.77a7,7,0,0,1,8.37-7.07h0a7,7,0,0,0,8.36-7.11L334,665.06a7,7,0,0,0-3.94-6l-18.27-8.79" transform="translate(-228.95 -70.03)"/><path class="cls-3" d="M359.36,444.07l-58.48,12.76a51.34,51.34,0,0,0-40.3,52.88l8.47,158.52a12.84,12.84,0,0,0,15.47,11.88l22.1-4.67a12.82,12.82,0,0,0,10.09-11l10.06-83.79c-4.79-11.15-11.22-12-11.22-12s31.27-19.15,44.07-5.74l20.16-1.59a12.83,12.83,0,0,0,11.61-15.09l-16.66-91.94A12.84,12.84,0,0,0,359.36,444.07Z" transform="translate(-228.95 -70.03)"/><path class="cls-2" d="M315.55,568.68s6.43.8,11.22,12l.58-4.8a12.85,12.85,0,0,1,11.73-11.27l20.54-1.62C346.82,549.53,315.55,568.68,315.55,568.68Z" transform="translate(-228.95 -70.03)"/></g><polygon class="cls-2" points="295.87 771.12 309.29 781.84 317.35 731.9 295.87 771.12"/><path class="cls-3" d="M558.43,726.83,422.76,745.35l33.71,184.29,13.72,6.18-16.36,4.39-12,9.11c-9.25,7-3.44,21.78,8.12,20.62l62.17-6.24a10.73,10.73,0,0,0,9.5-9l16.6-102.88-13.42-10.72,21.48-39.21Z" transform="translate(-228.95 -70.03)"/><polygon class="cls-2" points="227.52 859.6 228.9 867.12 224.88 870.18 241.24 865.79 227.52 859.6"/><polygon class="cls-2" points="429.94 724.96 442.93 734.93 450.56 719.43 429.94 724.96"/><path class="cls-3" d="M821.14,821.87l-18.88-1.53L783.48,828l1.24-14.32L676.18,659.26,565.91,723.61l93,71.38,20.62-5.53L671.89,805,760.54,873a13,13,0,0,0,14.33,1l51.37-28.94C836.92,839.08,833.37,822.86,821.14,821.87Z" transform="translate(-228.95 -70.03)"/><polygon class="cls-2" points="573.3 750.3 559.69 749.2 555.77 743.63 554.52 757.95 573.3 750.3"/><g id="arm_right" data-name="arm right"><path class="cls-3" d="M726.35,271.92l-22.51,1.93a12.83,12.83,0,0,0-11.36,9.71L671.61,368l3.22,29.39L653.06,379.7l-35.79-1.57a12.83,12.83,0,0,0-13.37,13.55L609.18,485a12.84,12.84,0,0,0,14,12.06l92.18-8.52A12.84,12.84,0,0,0,727,476.61l13.27-191A12.84,12.84,0,0,0,726.35,271.92Z" transform="translate(-228.95 -70.03)"/><path class="cls-2" d="M671.61,368l-.53,2.14a12.84,12.84,0,0,1-13,9.74l-5-.22,21.77,17.73Z" transform="translate(-228.95 -70.03)"/><path class="cls-3" d="M740,229.34l-36.13-2.54a7,7,0,0,0-7.42,6.35l-2,22.69a7,7,0,0,1-9.16,6h0a7,7,0,0,0-9.18,6l-.92,11.31a7,7,0,0,0,3.18,6.42l8.18,5.25,19.65-2.91L696,296.47l43.58-6.65,6.8-52.64A7,7,0,0,0,740,229.34Z" transform="translate(-228.95 -70.03)"/><polygon class="cls-2" points="457.63 220.82 466.5 226.53 467.08 226.44 477.27 217.91 457.63 220.82"/></g><path class="cls-4" d="M316.5,444.63h.22a9.14,9.14,0,0,1,8.55,6.11l42,115.75a9.25,9.25,0,0,1-1.86,9.42,31.59,31.59,0,0,1-5.28,4.7,9.28,9.28,0,0,1-14.07-4.85L308,456.74A9.26,9.26,0,0,1,316.5,444.63Z" transform="translate(-228.95 -70.03)"/><path class="cls-4" d="M625.75,365.58l.22,0a9.13,9.13,0,0,1,7.44,7.42L656,494.08a9.28,9.28,0,0,1-3.37,9,31.62,31.62,0,0,1-6,3.77,9.28,9.28,0,0,1-13.09-7.07L615.4,376.14A9.24,9.24,0,0,1,625.75,365.58Z" transform="translate(-228.95 -70.03)"/><rect class="cls-4" x="397.5" y="672.76" width="294.35" height="21.38" rx="6.5" transform="translate(-423.79 147.69) rotate(-19.25)"/><g id="helmet"><path class="cls-4" d="M335,434.89l-4.26,7.4a7.61,7.61,0,0,0,3,10.53c119.15,62.41,251.72-28.68,267.86-69.53A10.64,10.64,0,0,0,598.21,371l-3.42-2.65-5.92-7.47-32.65,16.43s-68.92,28.69-73.68,30-124.32,31.63-124.32,31.63Z" transform="translate(-228.95 -70.03)"/><path class="cls-3" d="M617.62,200c29.76,111-26.55,222.49-137.51,252.25S264.6,413.56,234.84,302.6c-13.25-49.41-2.73-93,17.53-127.3C277.61,132.54,318,93.86,379.59,77.36s115.92-3.25,159.17,21.15C573.47,118.1,604.37,150.54,617.62,200Z" transform="translate(-228.95 -70.03)"/><path class="cls-3" d="M428.49,442.42h102a0,0,0,0,1,0,0v13.42a1.37,1.37,0,0,1-1.37,1.37h-99.2a1.37,1.37,0,0,1-1.37-1.37V442.42A0,0,0,0,1,428.49,442.42Z" transform="translate(-329.09 69.5) rotate(-15.01)"/><path class="cls-5" d="M616.55,230.89c24.23,90.35-48.43,188.34-138.78,212.57S275.47,419.2,251.24,328.85c-10.14-37.82-9.5-81,8.33-116.19,24.76-48.86,77.07-85.48,129.61-99.57,45.17-12.11,99.45-11.29,142,9.89S604.44,185.71,616.55,230.89Z" transform="translate(-228.95 -70.03)"/><path d="M616.5,261.65a145.25,145.25,0,0,0-4.71-29.49c-24.23-90.35-127.15-124.24-217.5-100S231.78,237.22,256,327.57A145.55,145.55,0,0,0,273.19,367C487.13,472.23,582.68,325.72,616.5,261.65Z" transform="translate(-228.95 -70.03)"/><path class="cls-6" d="M477.77,443.46C558.33,421.86,621,342.62,616.5,261.65,582.68,325.72,487.13,472.23,273.19,367,313.51,431.73,401.62,463.88,477.77,443.46Z" transform="translate(-228.95 -70.03)"/><path class="cls-7" d="M567.54,181.77a111.82,111.82,0,0,1,10.15,10.83" transform="translate(-228.95 -70.03)"/><path class="cls-7" d="M472,143.89a181.6,181.6,0,0,1,55.93,12.84" transform="translate(-228.95 -70.03)"/></g></g><g id="buttons"><path class="cls-8" d="M430.77,520,450.88,574a6.18,6.18,0,0,0,7.71,3.7l98-32.37a6.15,6.15,0,0,0,3.91-7.81l-21.11-62.78A6.17,6.17,0,0,0,531.1,471l-97,41.22A6.16,6.16,0,0,0,430.77,520Z" transform="translate(-228.95 -70.03)"/><path class="cls-9" d="M460.15,520.65a4.59,4.59,0,0,0-5.85-2.24l-4.56,1.85a4.58,4.58,0,0,0-2.7,5.43l1.48,5.54c3.22-1.12,10.3-3.7,14.26-5.15Z" transform="translate(-228.95 -70.03)"/><path class="cls-3" d="M462.78,526.08c-4,1.45-11,4-14.26,5.15l4.68,17.45,17.64-6Z" transform="translate(-228.95 -70.03)"/><path class="cls-2" d="M461.73,561.44l10.72-3.78a4.58,4.58,0,0,0,2.6-6.32l-4.21-8.67-17.64,6,2.58,9.62A4.58,4.58,0,0,0,461.73,561.44Z" transform="translate(-228.95 -70.03)"/><path class="cls-3" d="M479.63,507.12a3.53,3.53,0,0,0-1.85,4.57l2.41,5.94a3.54,3.54,0,0,0,4.48,2l16.21-5.92L494,500.82Z" transform="translate(-228.95 -70.03)"/><path class="cls-3" d="M532.45,498l-4.19-8.48a3.53,3.53,0,0,0-4.58-1.67l-12.56,5.49L519.29,507l11.21-4.09A3.53,3.53,0,0,0,532.45,498Z" transform="translate(-228.95 -70.03)"/><polygon class="cls-2" points="265.08 430.79 271.93 443.67 290.34 436.95 282.16 423.32 265.08 430.79"/></g></g></g></svg>