<svg id="Layer_1" data-name="Layer 1" xmlns="http://www.w3.org/2000/svg" viewBox="0 0 500 150"><defs><style>.cls-1{fill:#fff;}</style></defs><title>sigularityHeaderLogo</title><path class="cls-1" d="M43.27,68.32A26.77,26.77,0,0,0,35.4,60.2l-2.75-2c-2.36-1.7-3.54-3.4-3.54-5.12a3.42,3.42,0,0,1,1.33-2.71,4.72,4.72,0,0,1,3.29-1.17,9.24,9.24,0,0,1,5.33,1.9,18.18,18.18,0,0,1,4.83,5.18V36.59A26.78,26.78,0,0,0,31.4,33.3,18.74,18.74,0,0,0,24,34.73V44l-5.54-5.54a18,18,0,0,0-2.09,2.35,23.76,23.76,0,0,0-4.5,13.6,20.88,20.88,0,0,0,.59,5A17.82,17.82,0,0,0,14.29,64a21.49,21.49,0,0,0,3.25,4.33,38,38,0,0,0,4.83,4.22l2.83,2.21q3.07,2.46,3.08,5a3.72,3.72,0,0,1-1.42,3A5.49,5.49,0,0,1,23.2,84q-6,0-11.08-7V97.17a36.4,36.4,0,0,0,13.12,2.71A19.28,19.28,0,0,0,39.9,93.72q5.77-6.16,5.78-15.66A19,19,0,0,0,43.27,68.32Z"/><path class="cls-1" d="M69.83,98.75H52.47V34.46H69.83Z"/><path class="cls-1" d="M78.83,98.75V34.46H95.4L104.1,57c.47,1.34,1,2.86,1.6,4.58s1.26,3.71,2,6l1.79,5.66q-1-8.37-1.46-14.32t-.5-10V34.46h16.58V98.75H107.51L98.77,75.1c-.92-2.52-1.74-4.89-2.48-7.1s-1.38-4.31-1.93-6.3q.54,6.78.79,11.82c.16,3.36.25,6.3.25,8.83v16.4Z"/><path class="cls-1" d="M156.19,61.57h24.23v2.67q0,18.57-5.54,26.73-6,8.91-17.86,8.91-11.61,0-18.24-8.75T132.21,66.9q0-15.62,6.62-24.61t18.11-9q15.24,0,22.11,15.91l-16.82,6.16a9.79,9.79,0,0,0-1.73-4.81,4.11,4.11,0,0,0-3.39-1.77q-7.17,0-7.17,19.69,0,8.37,1.59,12.16t5,3.79a4.75,4.75,0,0,0,2.5-.67,5.65,5.65,0,0,0,1.9-1.87,10,10,0,0,0,1.2-2.93,15.39,15.39,0,0,0,.44-3.86h-6.41Z"/><path class="cls-1" d="M214.07,34.46h17.36V79.93a20.58,20.58,0,0,1-1.79,9.25,18,18,0,0,1-5.83,6.7,22.07,22.07,0,0,1-13.37,4q-8.91,0-14.94-4.42-7.67-5.61-7.67-18v-43H205.2V75.94q0,4.2,1,6a3.64,3.64,0,0,0,3.43,1.75A3.68,3.68,0,0,0,213.11,82q1-1.71,1-6Z"/><path class="cls-1" d="M270.82,98.75h-30.4V34.46h17.37V83.31h13Z"/><path class="cls-1" d="M324.57,98.75H306.63l-1.29-8.16h-11.7l-1.42,8.16h-18l15.45-64.29H311ZM303.3,76.81l-1.13-7.49a8,8,0,0,1-.17-1.13q-.08-.91-.87-7.24c-.06-.47-.12-1.12-.21-1.94s-.19-1.85-.33-3.1l-.54-6.08c-.06.58-.13,1.23-.23,2s-.2,1.51-.31,2.37c-.2,1.72-.34,2.91-.42,3.58s-.14,1.07-.17,1.21l-1.2,7.78L296,76.81Z"/><path class="cls-1" d="M398.44,98.75H381.08V34.46h17.36Z"/><path class="cls-1" d="M429.88,98.75H412.51V49.87h-9.57V34.46h36.89V49.87h-9.95Z"/><path class="cls-1" d="M476.05,98.75H458.69V71.52L442.74,34.46h18.11L464,44c.61,1.86,1.15,3.65,1.64,5.37s.92,3.37,1.31,5c.64-2.36,1.2-4.4,1.67-6.1s.89-3.09,1.25-4.15L473,34.46h18L476.05,71.52V79L469,76l7.05,9.13Z"/><path class="cls-1" d="M362.42,72q10-4.45,9.95-16.11,0-10.9-7.41-16.82-5.82-4.62-17.57-4.63H329.61V62.09L337,68l-7.39.74v30h17.28V76.27L346.77,72c.3.89.56,1.65.77,2.29s.35,1.15.43,1.54l8.58,22.9h18.78ZM353.14,62a6.4,6.4,0,0,1-5,2.29H347V48.91h.63q7.53,0,7.53,7.21A8.56,8.56,0,0,1,353.14,62Z"/></svg>