<svg xmlns="http://www.w3.org/2000/svg" viewBox="0 0 1435 1000"><defs><style>.cls-1{fill:#1c262d;}.cls-2{fill:#d6d6d6;}.cls-3{fill:#fff;}.cls-4{fill:#484e51;}.cls-5{fill:#161819;}.cls-6{fill:none;stroke:#fff;stroke-linecap:round;stroke-miterlimit:10;stroke-width:20px;}.cls-7{fill:#3eaedb;}.cls-8{fill:#ff0031;}.cls-9{fill:#ff007a;}</style></defs><title>astronautMascotWaat</title><g id="bk"><rect class="cls-1" width="1435" height="1000"/></g><g id="art"><g id="backpack"><polygon class="cls-2" points="574.12 597.23 645.01 506.05 640.08 501.49 561.23 589.25 574.12 597.23"/><path class="cls-3" d="M275.69,443.93l21.16,18.34L296,484.38l-19.67,8.38-15.11-49.52-15.42,13.44a11.77,11.77,0,0,0-3.46,12.56l10,30.45a11.82,11.82,0,0,0,2.86,4.65L418.4,668.11A11.78,11.78,0,0,0,423,671l69.2,23.47A11.78,11.78,0,0,0,505,690.89l5.16-6.07-36.24-13.09L459.74,658l17.37-6,12.83,3.33,12.89,8,13,14.82,68.22-80.3-5.36-5.22c-1.18-1.15,3.44-3.54,3.44-3.54l4.34,5.91,60.69-71.45a11.8,11.8,0,0,0-1-16.29l-1.2-1.11-70.89,91.18-12.89-8,78.85-87.76L437.15,313.62l-70.37,67.55L360.47,372l-3.1,0-1.14-11.59-90.91,79.23Z"/><path class="cls-3" d="M429.49,307A11.78,11.78,0,0,0,416,308.35l-52.22,45.51,2.73,5.82Z"/><path class="cls-2" d="M368.91,364.87l-4.57,7-3.87.05,6.31,9.22,70.37-67.55-5.43-5a11.47,11.47,0,0,0-2.23-1.61l-63,52.7Z"/><polygon class="cls-2" points="360.47 371.95 357.31 367.34 366.47 359.68 363.74 353.86 356.23 360.4 357.37 371.99 360.47 371.95"/><polygon class="cls-2" points="368.91 364.87 366.47 359.68 357.31 367.34 360.47 371.95 364.34 371.9 368.91 364.87"/><path class="cls-2" d="M578.71,592.53l5.36,5.22,2.42-2.85L582.15,589S577.53,591.38,578.71,592.53Z"/><polygon class="cls-2" points="489.94 655.25 477.11 651.92 459.74 657.95 473.87 671.73 510.11 684.82 515.85 678.05 502.83 663.24 489.94 655.25"/><polygon class="cls-2" points="295.96 484.38 296.85 462.27 275.69 443.93 265.31 439.63 261.18 443.24 276.29 492.76 295.96 484.38"/><path class="cls-3" d="M191.63,511.25l20.82-9.56a54.81,54.81,0,0,1,4.12-20.8c-6.62-4.51-17.43-7.17-23.42-8.37C185.52,485.92,183.32,499.41,191.63,511.25Z"/><path class="cls-3" d="M258.56,435.54c12.57-6.63,25.48-9.28,35.56-5.79l2.07-21L274,400.92a372.61,372.61,0,0,0-31.87,21.61C247.69,424.51,255.2,432,258.56,435.54Z"/><path class="cls-3" d="M195.35,468.88c5.35,1.22,16.35,4.14,22.7,8.58a86.78,86.78,0,0,1,16.16-23.31,67.4,67.4,0,0,0-17.44-10.3C208.47,451.77,200.88,460.27,195.35,468.88Z"/><path class="cls-3" d="M237.92,450.46a97.21,97.21,0,0,1,16.49-12.56,22.46,22.46,0,0,0-20.45-9c-4.56,3.66-9.17,7.57-13.64,11.66C225.35,442.75,233.82,446.78,237.92,450.46Z"/><path class="cls-2" d="M193.15,472.52c6,1.2,16.8,3.86,23.42,8.37.46-1.15,1-2.3,1.48-3.43-6.35-4.44-17.35-7.36-22.7-8.58C194.57,470.09,193.84,471.31,193.15,472.52Z"/><path class="cls-2" d="M216.77,443.85a67.4,67.4,0,0,1,17.44,10.3q1.81-1.9,3.71-3.69c-4.1-3.68-12.57-7.71-17.6-9.92Q218.52,442.17,216.77,443.85Z"/><path class="cls-2" d="M254.41,437.9c1.38-.83,2.76-1.63,4.15-2.36-3.36-3.56-10.87-11-16.43-13-2.68,2-5.42,4.14-8.17,6.35A22.46,22.46,0,0,1,254.41,437.9Z"/></g><g id="suit_base" data-name="suit base"><path class="cls-3" d="M653.82,80.37l.82,20.67L660,116.66l-12.51-5.32L547.34,155.75A20.86,20.86,0,0,0,536,164.54L463.1,308l134.57,44,17.68-107-20.12-25.92,36-3.46,81.68-76.49A15,15,0,0,0,714.76,119L679.83,73.29A14.56,14.56,0,0,0,653.82,80.37Z"/><polygon class="cls-2" points="654.64 101.04 654.91 108.06 647.51 111.34 660.02 116.66 654.64 101.04"/><path class="cls-2" d="M615.35,245l0-.26c.5-3,.73-6,1-9.06a17.12,17.12,0,0,1,5.58-11.37l9.29-8.69-36,3.46Z"/><polygon class="cls-3" points="536.88 312.79 454.56 293.04 283.93 451.97 293.49 472.78 332.48 522.3 485.44 666.94 508.75 671.3 669.13 471.71 622.81 396.62 689.09 446.87 712.61 417.6 558.38 264.85 510.41 241.02 481.29 268.15 536.88 312.79"/><polygon class="cls-2" points="669.13 471.71 689.09 446.87 622.81 396.62 669.13 471.71"/><polygon class="cls-2" points="481.29 268.15 454.56 293.04 536.88 312.79 481.29 268.15"/><g id="arm_left" data-name="arm left"><path class="cls-3" d="M576.05,820.66l-12.92,51.49a7,7,0,0,1-8.84,5l-34.54-10.85a7,7,0,0,1-4.6-8.62l6.46-21.84a7,7,0,0,0-6.34-8.93h0a7,7,0,0,1-6.33-9L512.22,807a7,7,0,0,1,5.31-4.81l19.87-4"/><path class="cls-3" d="M542.63,586.66l53.46,26.92A51.32,51.32,0,0,1,622,674.83L574.28,826.25a12.83,12.83,0,0,1-17.94,7.65l-20.24-10a12.84,12.84,0,0,1-7-13.19L540.19,727c7.42-9.61,13.84-8.78,13.84-8.78s-25.51-26.33-41.25-16.53l-19.12-6.56a12.84,12.84,0,0,1-7.5-17.5l39-84.91A12.84,12.84,0,0,1,542.63,586.66Z"/><path class="cls-2" d="M554,718.26s-6.42-.83-13.84,8.78l.64-4.79a12.85,12.85,0,0,0-8.56-13.84l-19.49-6.68C528.52,691.93,554,718.26,554,718.26Z"/></g><polygon class="cls-2" points="729.72 296.45 732.08 279.44 685.03 298 729.72 296.45"/><path class="cls-3" d="M614.25,325.92l85.19,107.2L840.69,310.05,839,295.11l12.12,11.82,14,5.65c10.77,4.37,20.49-8.16,13.59-17.51l-37.1-50.27A10.71,10.71,0,0,0,829,241.2l-96.95,38.24-2.36,17L685,298Z"/><polygon class="cls-2" points="840.69 310.06 846.45 305.04 851.13 306.93 839.01 295.11 840.69 310.06"/><g id="arm_right" data-name="arm right"><path class="cls-3" d="M137.37,413.75l13.14,18.37a12.83,12.83,0,0,0,14.15,4.81L248,411.75,271.59,394l-4.13,27.77,16.92,31.57a12.83,12.83,0,0,0,18.48,4.59l77.52-52.17a12.84,12.84,0,0,0,3.22-18.19l-54.39-74.92a12.84,12.84,0,0,0-16.16-3.92l-171,86.1A12.84,12.84,0,0,0,137.37,413.75Z"/><path class="cls-2" d="M248,411.75l2.1-.63a12.84,12.84,0,0,1,15,6.22l2.36,4.41L271.59,394Z"/><path class="cls-3" d="M93.78,423.74,110,456.1a7,7,0,0,0,9.24,3.14l20.53-9.88a7,7,0,0,1,9.83,4.82h0a7,7,0,0,0,9.87,4.81l10.2-5a7,7,0,0,0,3.9-6l.34-9.71-12.54-15.41L174,427.28,146,393.2l-48.75,21A7,7,0,0,0,93.78,423.74Z"/><polygon class="cls-2" points="173.95 438.28 174.32 427.74 173.95 427.28 161.41 422.87 173.95 438.28"/></g><path class="cls-4" d="M495.1,678l-.11-.2a9.12,9.12,0,0,1,.89-10.47L574,572.13a9.26,9.26,0,0,1,9-3.21,31.5,31.5,0,0,1,6.73,2.14,9.28,9.28,0,0,1,3,14.58l-82.91,93.5A9.26,9.26,0,0,1,495.1,678Z"/><path class="cls-4" d="M269.25,452.44l-.08-.21a9.14,9.14,0,0,1,2.58-10.18l92.54-81.24a9.26,9.26,0,0,1,9.46-1.69,31.45,31.45,0,0,1,6.29,3.21,9.29,9.29,0,0,1,.61,14.87l-97,78.75A9.25,9.25,0,0,1,269.25,452.44Z"/><rect class="cls-4" x="436.8" y="349.2" width="294.35" height="21.38" rx="6.5" transform="translate(799.34 1011.17) rotate(-139.94)"/><g id="helmet"><path class="cls-4" d="M477.27,667.05l8.54-.11a7.61,7.61,0,0,0,7.51-8c-7.16-134.31-153.16-201.8-196.53-194.83a10.63,10.63,0,0,0-8.81,9.22l-.54,4.29-3.4,8.92,30.8,19.68s59.85,44.62,63.38,48.06,90.67,90.75,90.67,90.75Z"/><path class="cls-3" d="M131,544c80.22-82.23,204.86-90.75,287.1-10.52s76.79,205-3.44,287.27c-35.72,36.62-78.54,49.8-118.4,49.91-49.66.12-103.56-14.89-149.17-59.4s-62-98-63.06-147.66C83.14,623.73,95.26,580.6,131,544Z"/><path class="cls-3" d="M365.39,527.82h102a0,0,0,0,1,0,0v13.42a1.37,1.37,0,0,1-1.37,1.37h-99.2a1.37,1.37,0,0,1-1.37-1.37V527.82A0,0,0,0,1,365.39,527.82Z" transform="translate(340.63 1209.08) rotate(-135.71)"/><path class="cls-5" d="M158.13,529.11c65.32-67,186.68-54.5,253.64,10.82s82.4,186.34,17.08,253.3c-27.34,28-64.81,49.52-104.15,52.15C270,849,211.85,822.74,172.91,784.76c-33.47-32.66-60.48-79.75-64-127.13S125.47,562.59,158.13,529.11Z"/><path d="M184.61,513.45a144.88,144.88,0,0,0-23,19.1c-65.32,67-41.92,172.76,25,238.08S360,856.74,425.32,789.78a145.94,145.94,0,0,0,25.16-34.92C431.73,517.19,257,509.82,184.61,513.45Z"/><path class="cls-6" d="M140.92,596.33A113.17,113.17,0,0,1,145,582.07"/><path class="cls-6" d="M157.11,697.82a181.15,181.15,0,0,1-17.5-54.66"/></g></g><g id="buttons"><path class="cls-7" d="M501.59,541.26l36.11-44.82a6.18,6.18,0,0,0-.76-8.52L459.1,420.21a6.15,6.15,0,0,0-8.71.63L407.18,471a6.15,6.15,0,0,0,1,9l84.94,62.34A6.16,6.16,0,0,0,501.59,541.26Z"/><path class="cls-8" d="M487.14,515.68a4.58,4.58,0,0,0,1.05,6.17l3.93,3a4.58,4.58,0,0,0,6-.45l4-4.1c-2.6-2.2-8.44-7-11.7-9.63Z"/><path class="cls-3" d="M490.46,510.65c3.26,2.66,9.1,7.43,11.7,9.63l12.63-12.94-14.18-12.09Z"/><path class="cls-2" d="M521.4,493.49l-8.72-7.28a4.58,4.58,0,0,0-6.76,1l-5.31,8.05,14.18,12.09,7-7.13A4.58,4.58,0,0,0,521.4,493.49Z"/><path class="cls-3" d="M465.56,505.83a3.52,3.52,0,0,0,4.87-.74l3.88-5.11a3.53,3.53,0,0,0-.58-4.86L460.37,484.2l-7.58,12.46Z"/><path class="cls-3" d="M430.75,465.06,425.6,473a3.53,3.53,0,0,0,.91,4.79l11.13,8,7.55-14L436,464.25A3.54,3.54,0,0,0,430.75,465.06Z"/><polygon class="cls-2" points="452.79 496.66 460.37 484.2 445.19 471.8 437.64 485.79 452.79 496.66"/></g><path class="cls-9" d="M663.66,665.37q-7.7-14.08-15.39-26.7c2.76-.15,5.52-.33,8.28-.52q3.6,6.58,7.2,13.5a103,103,0,0,1,4.5,9.63h.18a79.33,79.33,0,0,1,5-10q4.05-7.44,8.1-15.39,4.1-.47,8.19-1,3.69,7.29,7.38,15a66.15,66.15,0,0,1,4.23,10.55h.18c1.26-3.56,3-7.25,4.86-11.47q4-8.56,8-17.61,4-.66,8-1.37-8.58,18.59-17.18,35.08c-2.73.12-5.46.21-8.19.29q-3.83-8.06-7.65-15.73a51,51,0,0,1-4-9.55l-.18,0a58.82,58.82,0,0,1-4.68,10.12q-4.32,8-8.64,15.37Q667.76,665.47,663.66,665.37Z"/><path class="cls-9" d="M734.58,652q-3.15,6-6.3,11.67-4,.3-8.1.56,10.3-17.61,20.61-37.76c3.15-.64,6.3-1.29,9.45-2q10.35,16.38,20.7,34.75-4.19.54-8.37,1-3.24-5.67-6.48-11.14Q745.33,650.7,734.58,652Zm19.89-6.41q-3-5-5.94-9.75a52.79,52.79,0,0,1-3.15-6.13l-.18,0c-.9,2.35-1.89,4.75-3.06,7.16q-3,5.76-5.94,11.3Q745.33,647,754.47,645.57Z"/><path class="cls-9" d="M789.66,643.56q-3.15,7.11-6.3,14-4.05.59-8.1,1.12,10.31-21.33,20.61-45.14,4.73-1.25,9.45-2.55,10.35,18.75,20.7,39.55L817.65,652q-3.24-6.43-6.48-12.65Q800.42,641.58,789.66,643.56Zm19.89-8.26q-3-5.64-5.94-11.12a64,64,0,0,1-3.15-7l-.18,0c-.9,2.76-1.89,5.59-3.06,8.44q-3,6.81-5.94,13.42Q800.42,637.26,809.55,635.3Z"/><path class="cls-9" d="M844.74,632q-3.15,8.21-6.3,16.16c-2.7.53-5.4,1-8.1,1.55q10.3-24.88,20.61-52.15,4.72-1.47,9.45-3,10.35,21.28,20.7,44.71l-8.37,1.83q-3.24-7.25-6.48-14.28Q855.5,629.51,844.74,632Zm19.89-9.76q-3-6.37-5.94-12.58a76.76,76.76,0,0,1-3.15-8l-.18.05c-.9,3.16-1.89,6.39-3.06,9.66q-3,7.82-5.94,15.43Q855.5,624.59,864.63,622.24Z"/><path class="cls-9" d="M899.82,618.29q-3.15,9.24-6.3,18.24l-8.1,1.82q10.3-28.23,20.61-58.79l9.45-3.23q10.35,24,20.7,50.26l-8.37,2q-3.24-8.12-6.48-16Q910.58,615.47,899.82,618.29Zm19.89-10.9q-3-7.17-5.94-14.16a93,93,0,0,1-3.15-9l-.18.06c-.9,3.54-1.89,7.17-3.06,10.83q-3,8.76-5.94,17.34Q910.58,610,919.71,607.39Z"/><path class="cls-9" d="M954.9,603.4q-3.15,10.22-6.3,20.22l-8.1,1.94q10.31-31.41,20.61-65.07l9.45-3.31q10.35,27,20.7,56.17l-8.37,2q-3.24-9-6.48-17.87Zm19.89-11.69q-3-8-5.94-15.84c-1.35-3.55-2.25-6.86-3.15-10.06l-.18.06c-.9,3.9-1.89,7.9-3.06,11.94q-3,9.66-5.94,19.13Z"/><path class="cls-9" d="M1010,588.32q-3.15,11.13-6.3,22.07l-8.1,1.92q10.3-34.38,20.61-71l9.45-3.22q10.35,30,20.7,62.44l-8.37,1.87q-3.24-10-6.48-19.84Q1020.73,585.42,1010,588.32Zm19.89-12.13q-3-8.91-5.94-17.63c-1.35-4-2.25-7.63-3.15-11.19l-.18.06c-.9,4.25-1.89,8.61-3.06,13q-3,10.52-5.94,20.83Q1020.74,578.69,1029.87,576.19Z"/><path class="cls-9" d="M1065.06,574q-3.15,12-6.3,23.81l-8.1,1.77q10.3-37.2,20.61-76.52l9.45-3q10.35,33.35,20.7,69.08l-8.37,1.6q-3.24-11.09-6.48-21.93Q1075.82,571.35,1065.06,574ZM1085,561.8q-3-9.87-5.94-19.53c-1.35-4.38-2.25-8.43-3.15-12.36l-.18.05c-.9,4.58-1.89,9.28-3.06,14q-3,11.29-5.94,22.41Q1075.82,564,1085,561.8Z"/><path class="cls-9" d="M1120.14,561.46q-3.15,12.82-6.3,25.45c-2.7.48-5.4,1-8.1,1.46q10.3-39.82,20.61-81.7,4.73-1.31,9.45-2.56,10.35,36.81,20.7,76.09l-8.37,1.17q-3.24-12.18-6.48-24.13Q1130.9,559.24,1120.14,561.46ZM1140,549.52q-3-10.87-5.94-21.53c-1.35-4.83-2.25-9.28-3.15-13.6l-.18.05c-.9,4.9-1.89,9.91-3.06,15q-3,12-5.94,23.9Q1130.9,551.32,1140,549.52Z"/><path class="cls-9" d="M1175.22,551.64q-3.15,13.58-6.3,27l-8.1,1q10.31-42.27,20.61-86.52c3.15-.67,6.3-1.33,9.45-2q10.35,40.46,20.7,83.46-4.18.27-8.37.6-3.24-13.35-6.48-26.45Q1186,550.05,1175.22,551.64Zm19.89-11.32q-3-11.91-5.94-23.63c-1.35-5.31-2.25-10.16-3.15-14.88l-.18,0c-.9,5.2-1.89,10.52-3.06,15.85q-3,12.72-5.94,25.28Q1186,541.54,1195.11,540.32Z"/><path class="cls-9" d="M1225.08,494.79q-9.22,1.31-18.45,2.87v-9.53q22.45-4.06,44.91-6.61v10.07q-9.27.93-18.54,2.13v79.84q-4,.13-7.92.31Z"/><path class="cls-9" d="M1264.14,547l-.18-3.59c-.54-7.44,1.08-15.61,5.58-24.1,4-7.51,6.3-13.06,6.3-19.36,0-7.15-2.88-11.76-8.55-11.47a13.69,13.69,0,0,0-9.09,5L1256,485a19.89,19.89,0,0,1,12.87-6.69c10.35-.88,15,9,15,19.72,0,9.62-3.42,16.62-7.74,24.68-4,7.35-5.4,13.48-5.13,20.58l.09,3.62Q1267.65,546.91,1264.14,547Zm-2,19.32c0-5.09,2.25-8.69,5.4-8.67s5.31,3.68,5.31,8.84c0,4.89-2.07,8.58-5.4,8.49C1264.32,574.84,1262.16,571.09,1262.16,566.27Z"/></g></svg>